# xmcd
#
# Track frame offsets: 
#        150
#        11837
#        27069
#        48546
#        65648
#        78135
#        88294
#        100836
#        121913
#        139912
#        149877
#        161244
#        172948
#        192825
#        205162
#        215642
#        226956
#        239468
#        257020
#        280844
#        293106
#        305633
#
# Disc length: 4284 seconds
#
# Revision: 2
# Processed by: cddbd v1.4PL0 Copyright (c) Steve Scherf et al.
# Submitted via: ExactAudioCopy v0.90b4
#
DISCID=4c10ba16
DTITLE=John Lee Hooker - The Very Best
DYEAR=1900
DGENRE=
TTITLE0=Boom Boom
TTITLE1=One Bourbon, One Scotch, One Beer
TTITLE2=Chill Out (Things Gonna Change)
TTITLE3=Frisco Blues
TTITLE4=Whiskey And Women
TTITLE5=Dimples
TTITLE6=Troubles Blues
TTITLE7=Mr. Lucky
TTITLE8=We'll Meet Again
TTITLE9=I Wanna Walk
TTITLE10=Let's Make It
TTITLE11=Boogie Chillon
TTITLE12=Susie
TTITLE13=You Can Lead Me Baby
TTITLE14=Big Legs Tight Skirts
TTITLE15=Good Rockin' Mama
TTITLE16=Crawling Kingsnake
TTITLE17=Spellbound
TTITLE18=Annie Mae
TTITLE19=Everybody Rockin
TTITLE20=Crawling Black Spider
TTITLE21=I Love You Honey
EXTD=
EXTT0=
EXTT1=
EXTT2=
EXTT3=
EXTT4=
EXTT5=
EXTT6=
EXTT7=
EXTT8=
EXTT9=
EXTT10=
EXTT11=
EXTT12=
EXTT13=
EXTT14=
EXTT15=
EXTT16=
EXTT17=
EXTT18=
EXTT19=
EXTT20=
EXTT21=
PLAYORDER=
